<svg width="18" height="23" viewBox="0 0 18 23" fill="none" xmlns="http://www.w3.org/2000/svg">
<path d="M16.7481 9.40364C16.4995 9.40364 16.261 9.50241 16.0852 9.67822C15.9094 9.85404 15.8106 10.0925 15.8106 10.3411V14.3049C15.8096 15.1176 15.4863 15.8968 14.9116 16.4715C14.3369 17.0462 13.5577 17.3695 12.745 17.3705H7.76406L9.44312 15.6952C9.61416 15.5186 9.70901 15.2819 9.70723 15.0361C9.70545 14.7903 9.60718 14.555 9.4336 14.3809C9.26002 14.2069 9.02501 14.1079 8.7792 14.1055C8.53338 14.103 8.29643 14.1972 8.11937 14.3677L4.83437 17.6443C4.65855 17.8201 4.55946 18.0584 4.55875 18.3071V18.308C4.55875 18.3296 4.57 18.3474 4.57094 18.3689C4.57596 18.5967 4.67063 18.8133 4.83437 18.9718L8.1175 22.2568C8.29431 22.4275 8.53113 22.522 8.77694 22.5199C9.02275 22.5178 9.25788 22.4192 9.4317 22.2453C9.60553 22.0715 9.70412 21.8364 9.70626 21.5906C9.70839 21.3448 9.6139 21.1079 9.44312 20.9311L7.75844 19.2455H12.7441C14.0539 19.244 15.3097 18.723 16.236 17.7968C17.1622 16.8706 17.6832 15.6148 17.6847 14.3049V10.3411C17.6847 10.0925 17.5859 9.85404 17.4101 9.67822C17.2343 9.50241 16.9968 9.40364 16.7481 9.40364ZM10.7387 6.12614L9.05594 7.80895C8.9664 7.89543 8.89497 7.99888 8.84584 8.11326C8.79671 8.22764 8.77085 8.35065 8.76976 8.47513C8.76868 8.59962 8.7924 8.72307 8.83954 8.83828C8.88668 8.9535 8.95629 9.05817 9.04432 9.14619C9.13234 9.23422 9.23701 9.30383 9.35223 9.35097C9.46745 9.39811 9.59089 9.42183 9.71537 9.42075C9.83986 9.41966 9.96287 9.3938 10.0773 9.34467C10.1916 9.29554 10.2951 9.22411 10.3816 9.13457L13.6628 5.85332C13.8387 5.67704 13.9375 5.43816 13.9375 5.18911C13.9375 4.94005 13.8387 4.70117 13.6628 4.52489L10.3816 1.24364C10.2047 1.07286 9.96793 0.978368 9.72212 0.980504C9.47631 0.98264 9.24118 1.08124 9.06736 1.25506C8.89354 1.42888 8.79494 1.66401 8.79281 1.90982C8.79067 2.15563 8.88516 2.39245 9.05594 2.56926L10.7378 4.25114H5.75313C4.44332 4.25287 3.18766 4.77396 2.26149 5.70013C1.33532 6.6263 0.814236 7.88196 0.8125 9.19176V13.1564C0.8125 13.4051 0.911272 13.6435 1.08709 13.8194C1.2629 13.9952 1.50136 14.0939 1.75 14.0939C1.99864 14.0939 2.2371 13.9952 2.41291 13.8194C2.58873 13.6435 2.6875 13.4051 2.6875 13.1564V9.19176C2.68874 8.37893 3.01225 7.59975 3.5871 7.02508C4.16195 6.4504 4.94123 6.12713 5.75406 6.12614H10.7387Z" fill="black"/>
</svg>
